<svg width="1600" height="1280" viewBox="0 0 1600 1280" fill="none" xmlns="http://www.w3.org/2000/svg">
<g clip-path="url(#clip0)">
<g clip-path="url(#clip1)">
<path d="M1322.39 -459.549C1282.69 -421.08 1281.69 -357.705 1320.16 -318.005C1358.63 -278.301 1422.01 -277.303 1461.71 -315.772C1501.41 -354.245 1502.41 -417.62 1463.94 -457.323C1425.47 -497.023 1362.09 -498.021 1322.39 -459.549ZM847.437 416.479C837.816 425.801 841.349 442.007 853.995 446.462L1254.51 587.518L1363.14 625.783C1377.17 630.711 1390.81 617.517 1386.36 603.335L1351.72 493.323L1224.09 87.8841C1220.06 75.0791 1203.97 71.0016 1194.32 80.3524L847.437 416.479ZM1643.83 -330.185L1819.04 -149.372C1922.73 -42.3686 1920.04 128.411 1813.03 232.098C1706.04 335.771 1535.26 333.083 1431.58 226.079L1256.37 45.2668C1249.46 38.1327 1249.64 26.7502 1256.76 19.848L1547.37 -261.751L1587.13 -300.282L1618.41 -330.585C1625.54 -337.498 1636.92 -337.319 1643.83 -330.185ZM1048.98 596.808C1152.67 703.812 1149.98 874.591 1042.98 978.277C935.984 1081.95 765.205 1079.26 661.519 972.259C557.843 865.266 560.533 694.487 667.525 590.812C774.529 487.126 945.308 489.815 1048.98 596.808ZM10.2823 1227.68L-339.392 1566.51C-346.526 1573.42 -346.705 1584.8 -339.793 1591.94L-270.97 1662.96C-264.054 1670.1 -252.672 1670.28 -245.537 1663.37L-82.2185 1505.11C-71.8064 1495.02 -54.3435 1500.77 -51.9511 1515.08L17.5177 1932.66C19.8876 1946.96 37.3537 1952.72 47.7659 1942.63L397.694 1603.55C404.817 1596.65 405.008 1585.26 398.092 1578.12L329.259 1507.08C322.346 1499.95 310.951 1499.78 303.828 1506.68L137.33 1668.02C126.869 1678.16 109.337 1672.31 107.048 1657.92L40.5643 1237.78C38.2875 1223.38 20.743 1217.54 10.2823 1227.68ZM632.276 1000.6C735.962 1107.6 733.272 1278.38 626.268 1382.06C519.277 1485.74 348.497 1483.05 244.811 1376.05C141.135 1269.05 143.825 1098.27 250.817 994.6C357.82 890.914 528.6 893.602 632.276 1000.6ZM1271.42 -270.778C1309.9 -231.075 1308.9 -167.7 1269.19 -129.227C1229.49 -90.7582 1166.12 -91.7563 1127.65 -131.46C1089.18 -171.16 1090.18 -234.535 1129.88 -273.004C1169.58 -311.476 1232.95 -310.478 1271.42 -270.778Z" fill="white"/>
</g>
</g>
<defs>
<clipPath id="clip0">
<rect width="1600" height="1280" fill="white"/>
</clipPath>
<clipPath id="clip1">
<rect width="2762.12" height="838.138" fill="white" transform="translate(-560.104 1364.58) rotate(-44.0978)"/>
</clipPath>
</defs>
</svg>
